<?xml version="1.0" encoding="UTF-8"?>
<svg id="Layer_1" data-name="Layer 1" xmlns="http://www.w3.org/2000/svg" viewBox="0 0 1174.78 430.04">
  <defs>
    <style>
      .cls-1, .cls-2 {
        fill: #4fbded;
      }

      .cls-3 {
        letter-spacing: -.05em;
      }

      .cls-4 {
        fill: #231f20;
      }

      .cls-4, .cls-2 {
        font-family: Montserrat-ExtraBold, Montserrat;
        font-size: 127.16px;
        font-weight: 700;
        opacity: .98;
      }

      .cls-5 {
        letter-spacing: 0em;
      }
    </style>
  </defs>
  <g>
    <path class="cls-1" d="M413.7,183.37c171.11-18.35,192.69,246.68,16.04,246.68-35.89,0-79.96,0-124.96,0-8.98,0-15.58-2.45-15.58-12.46,0-28.27-1.63-91.71,4.13-118.61,12.07-56.45,62.09-109.35,120.37-115.6Z"/>
    <path d="M289.24,8.68c0-1.8,0-5.13,5.35-6.91,6.08-2.02,56.57-2.08,66.16-1.31,50.52,4.04,82.03,54.59,65.6,102.82-8.5,24.95-44.61,55.35-74.97,82.27-19.48,17.26-36.64,37.01-51.1,58.72l-11.03,16.57V8.68Z"/>
    <path class="cls-1" d="M263.52,8.68c0-1.8,0-5.13-5.35-6.91-6.08-2.02-56.57-2.08-66.16-1.31-50.52,4.04-82.03,54.59-65.6,102.82,8.5,24.95,44.61,55.35,74.97,82.27,19.48,17.26,36.64,37.01,51.1,58.72l11.03,16.57V8.68Z"/>
    <path d="M138.81,183.37c-171.11-18.35-192.69,246.68-16.04,246.68,35.89,0,79.96,0,124.96,0,8.98,0,15.58-2.45,15.58-12.46,0-28.27,1.63-91.71-4.13-118.61-12.07-56.45-62.09-109.35-120.37-115.6Z"/>
  </g>
  <g>
    <text class="cls-4" transform="translate(644.24 184.79) scale(.91 1)"><tspan class="cls-3" x="0" y="0">W</tspan><tspan x="143.56" y="0">e Do</tspan></text>
    <text class="cls-2" transform="translate(643.16 319.26) scale(.91 1)"><tspan x="0" y="0">BRAN</tspan><tspan class="cls-5" x="394.32" y="0">D</tspan><tspan x="498.59" y="0">Z</tspan></text>
  </g>
</svg>